<svg width="80" height="80" viewBox="0 0 80 80" fill="none" xmlns="http://www.w3.org/2000/svg">
<path fill-rule="evenodd" clip-rule="evenodd" d="M80 21.2432V80H0V0H58.7568L80 21.2432ZM21.4011 42.4864H30.3798C29.3938 43.1905 28.5242 43.853 27.7339 44.4552L27.7338 44.4553C25.1341 46.4361 23.3919 47.7635 21.1854 47.7635C18.1539 47.5132 19.0283 44.9324 19.7756 43.4725C19.9312 43.1758 20.1647 42.9272 20.4512 42.7534C20.7376 42.5797 21.066 42.4874 21.4011 42.4864ZM12.5686 66.8728H22.2446C22.2809 66.8794 22.3183 66.8714 22.3486 66.8504C22.379 66.8295 22.3997 66.7973 22.4064 66.7611C22.413 66.7248 22.405 66.6874 22.384 66.6571C22.3631 66.6267 22.3309 66.6059 22.2947 66.5993C19.5138 65.7774 16.8077 64.7208 14.2057 63.4407C14.1299 63.4035 14.047 63.3829 13.9625 63.3805C13.8781 63.3781 13.7941 63.3939 13.7163 63.4268C13.6385 63.4596 13.5687 63.5089 13.5116 63.5711C13.4544 63.6333 13.4114 63.7071 13.3852 63.7874L12.4338 66.6879C12.4272 66.7091 12.4257 66.7316 12.4293 66.7535C12.4329 66.7755 12.4416 66.7963 12.4547 66.8142C12.4678 66.8322 12.485 66.8469 12.5047 66.857C12.5245 66.8672 12.5464 66.8726 12.5686 66.8728ZM58.6027 42.4864H49.6278C50.6313 43.2017 51.5135 43.8747 52.3142 44.4855C54.8941 46.4537 56.6261 47.7751 58.8338 47.7751C61.8614 47.5247 60.9908 44.9439 60.2397 43.4841C60.0851 43.1832 59.8505 42.9309 59.5616 42.7548C59.2728 42.5788 58.9409 42.4859 58.6027 42.4864ZM67.4583 66.8728H57.7785C57.7422 66.8794 57.7048 66.8714 57.6745 66.8504C57.6441 66.8295 57.6234 66.7973 57.6167 66.7611C57.6101 66.7248 57.6181 66.6874 57.6391 66.6571C57.66 66.6267 57.6922 66.6059 57.7284 66.5993C60.5093 65.7774 63.2154 64.7208 65.8174 63.4407C65.8932 63.4035 65.9761 63.3829 66.0606 63.3805C66.145 63.3781 66.229 63.3939 66.3068 63.4268C66.3846 63.4596 66.4544 63.5089 66.5115 63.5711C66.5687 63.6333 66.6117 63.7071 66.6379 63.7874L67.5893 66.6879C67.5967 66.7088 67.5989 66.7312 67.5959 66.7532C67.5928 66.7752 67.5845 66.7962 67.5717 66.8143C67.5647 66.8241 67.5565 66.833 67.5472 66.8407C67.5395 66.8471 67.5311 66.8527 67.5221 66.8573C67.5186 66.8592 67.515 66.8608 67.5113 66.8624C67.5074 66.864 67.5034 66.8654 67.4994 66.8666C67.4861 66.8707 67.4723 66.8728 67.4583 66.8728ZM69.9966 42.8909C60.9833 55.489 55.8382 51.4792 50.9477 47.6679C48.6758 45.8974 46.4589 44.1697 43.9347 44.1697C40.8185 44.1697 40.0019 46.685 40.0019 47.7905C40.0019 46.685 39.1814 44.1697 36.0691 44.1697C33.5384 44.1697 31.3186 45.8995 29.045 47.6711C24.1551 51.4815 19.0167 55.4855 10.0033 42.8909C9.74909 63.1249 28.9893 67.9282 40.0019 55.2554C51.0106 67.9089 70.2508 63.1249 69.9966 42.8909ZM63.9297 37.4867C65.328 36.8858 66.965 36.1 68.448 35.3065C68.5784 35.2352 68.6804 35.1214 68.7372 34.984C68.7939 34.8467 68.802 34.6941 68.76 34.5515C68.5867 33.966 68.2515 32.9145 67.7739 31.7589C67.74 31.676 67.6893 31.601 67.6249 31.5387C67.5605 31.4764 67.4838 31.4282 67.3998 31.397C67.3158 31.3659 67.2263 31.3525 67.1368 31.3578C67.0474 31.3631 66.96 31.3868 66.8803 31.4276C65.4397 32.1595 64.2918 32.6756 63.221 33.1263V24.3671C63.2215 24.2132 63.1668 24.0643 63.0669 23.9473C60.2521 20.5614 56.7264 17.8368 52.7401 15.9669C48.7539 14.0969 44.4048 13.1276 40.0018 13.1276C35.5987 13.1276 31.2496 14.0969 27.2634 15.9669C23.2771 17.8368 19.7514 20.5614 16.9366 23.9473C16.8367 24.0643 16.782 24.2132 16.7825 24.3671V33.1109C15.7079 32.6602 14.56 32.1441 13.1232 31.4122C13.0432 31.3714 12.9555 31.3476 12.8658 31.3422C12.7761 31.3369 12.6863 31.3503 12.602 31.3814C12.5177 31.4125 12.4407 31.4607 12.376 31.5231C12.3112 31.5854 12.2601 31.6604 12.2257 31.7435C11.752 32.9068 11.4168 33.9506 11.2397 34.5361C11.1932 34.6812 11.1995 34.8379 11.2572 34.9788C11.315 35.1198 11.4206 35.2358 11.5555 35.3065C13.0346 36.1 14.6717 36.8858 16.0699 37.4867C16.5302 37.6829 17.0256 37.7838 17.526 37.7833H62.4776C62.9767 37.7838 63.4708 37.6829 63.9297 37.4867Z" fill="#D9304F"/>
</svg>
