<svg width="80" height="80" viewBox="0 0 80 80" fill="none" xmlns="http://www.w3.org/2000/svg">
<path fill-rule="evenodd" clip-rule="evenodd" d="M39.8203 79.5788C61.8125 79.5788 79.6406 61.8455 79.6406 39.9703C79.6406 18.0952 61.8125 0.361816 39.8203 0.361816C17.8282 0.361816 0 18.0952 0 39.9703C0 61.8455 17.8282 79.5788 39.8203 79.5788ZM74.9604 40.5788C64.4031 55.2457 58.3812 50.5799 52.6528 46.1414C49.9898 44.0781 47.3902 42.0639 44.4278 42.0639C40.7786 42.0639 39.8203 44.9958 39.8203 46.2809C39.8203 45.0043 38.862 42.0639 35.2128 42.0639C32.249 42.0639 29.6488 44.0783 26.9855 46.1416C21.2568 50.5797 15.236 55.244 4.67596 40.5745C4.38077 64.149 26.9219 69.7235 39.8203 54.9788C52.7187 69.7235 75.2599 64.1533 74.9604 40.5788ZM67.8674 34.2894C69.5059 33.5788 71.4225 32.6639 73.1551 31.7362C73.3017 31.6478 73.414 31.5126 73.4738 31.3528C73.5336 31.1929 73.5374 31.0177 73.4846 30.8554C73.2792 30.1575 72.8899 28.9575 72.3295 27.6043C72.2904 27.507 72.2314 27.4188 72.1561 27.3454C72.0808 27.2721 71.991 27.2151 71.8923 27.1783C71.7937 27.1414 71.6884 27.1255 71.5832 27.1314C71.478 27.1374 71.3752 27.1651 71.2813 27.2128C69.6043 28.0639 68.261 28.6682 67.0033 29.1958V18.983C67.0031 18.804 66.9394 18.6307 66.8236 18.4937C63.5255 14.5493 59.395 11.3754 54.7253 9.19707C50.0555 7.01879 44.961 5.88958 39.8033 5.88958C34.6455 5.88958 29.551 7.01879 24.8813 9.19707C20.2115 11.3754 16.081 14.5493 12.7829 18.4937C12.6671 18.6307 12.6035 18.804 12.6033 18.983V29.1958C11.3541 28.6682 10.0108 28.0639 8.32519 27.2128C8.23094 27.1657 8.12791 27.1385 8.02256 27.1328C7.91722 27.1271 7.81184 27.1432 7.71303 27.18C7.61422 27.2167 7.52411 27.2734 7.44835 27.3464C7.37259 27.4194 7.31282 27.5072 7.27279 27.6043C6.71664 28.9575 6.32305 30.1703 6.11771 30.8554C6.0674 31.0219 6.07656 31.2006 6.14362 31.3611C6.21068 31.5217 6.33151 31.6542 6.48562 31.7362C8.22252 32.6724 10.1391 33.5873 11.7776 34.2894C12.3184 34.5192 12.9008 34.6365 13.4888 34.6341H66.1562C66.7442 34.636 67.3265 34.5187 67.8674 34.2894Z" fill="#2A2A2A"/>
</svg>
