<svg width="80" height="80" viewBox="0 0 80 80" fill="none" xmlns="http://www.w3.org/2000/svg">
<path d="M69.88 0H10.12C7.436 0 4.86194 1.06618 2.96407 2.964C1.06621 4.86182 0 7.43581 0 10.1197L0 69.8783C-5.10966e-08 72.5624 1.06615 75.1366 2.96395 77.0347C4.86176 78.9329 7.43581 79.9995 10.12 80H69.88C72.5642 79.9995 75.1382 78.9329 77.036 77.0347C78.9339 75.1366 80 72.5624 80 69.8783V10.1197C80 7.43581 78.9338 4.86182 77.0359 2.964C75.1381 1.06618 72.564 0 69.88 0V0ZM34.4403 15.067C34.5664 14.714 34.7987 14.4086 35.1053 14.1929C35.4119 13.9772 35.7778 13.8617 36.1527 13.8623H43.8849C44.261 13.8619 44.628 13.9778 44.9356 14.1942C45.2432 14.4106 45.4764 14.7169 45.6031 15.071C48.931 24.4047 56.3215 45.3038 55.97 46.2873C55.6026 47.3182 55.2294 47.3261 55.2294 47.3261H55.2195C54.1303 47.3181 53.0546 47.0854 52.0594 46.6428C51.5452 46.4087 51.0595 46.1165 50.6118 45.7718C48.461 44.1642 47.5307 42.6553 46.5136 41.6935C46.4189 41.6062 46.3471 41.497 46.3042 41.3756C46.1601 40.9588 46.0139 40.5402 45.8678 40.1234C44.1561 35.0359 42.4497 29.9497 40.7485 24.8648C40.6996 24.7023 40.5996 24.5599 40.4633 24.4586C40.3271 24.3574 40.1618 24.3027 39.9921 24.3027C39.8224 24.3027 39.6571 24.3574 39.5209 24.4586C39.3846 24.5599 39.2846 24.7023 39.2357 24.8648L34.1164 40.1234C33.9703 40.5402 33.8261 40.9588 33.6799 41.3756C33.6371 41.497 33.5653 41.6062 33.4706 41.6935C32.4535 42.6553 31.5232 44.1642 29.3744 45.7718C28.9256 46.116 28.4393 46.4082 27.9248 46.6428C26.9298 47.086 25.8539 47.3186 24.7647 47.3261H24.7529C24.7529 47.3261 24.3796 47.3261 24.0122 46.2873C23.6785 45.3038 31.0947 24.4066 34.4403 15.067ZM26.5837 62.5176L25.4896 65.6104C25.4348 65.7658 25.3328 65.9001 25.1979 65.9947C25.0629 66.0892 24.9018 66.1393 24.7371 66.1377H18.3676C18.2415 66.1388 18.1169 66.1096 18.0043 66.0526C17.8917 65.9956 17.7944 65.9125 17.7205 65.8102C17.6466 65.7079 17.5983 65.5894 17.5797 65.4646C17.561 65.3398 17.5725 65.2124 17.6132 65.0929L19.6889 59.1127C19.7313 58.994 19.801 58.8869 19.8925 58.8002C19.9839 58.7134 20.0946 58.6494 20.2154 58.6135C20.3362 58.5775 20.4638 58.5705 20.5879 58.5931C20.7119 58.6157 20.8289 58.6672 20.9292 58.7434C22.4878 59.9427 24.2334 60.8769 26.0959 61.5084C26.1944 61.5423 26.2852 61.5954 26.3631 61.6646C26.441 61.7338 26.5045 61.8177 26.5498 61.9115C26.5951 62.0053 26.6215 62.1071 26.6273 62.2112C26.6331 62.3152 26.6183 62.4193 26.5837 62.5176ZM40.3476 57.6888C40.2185 57.6198 40.0743 57.5837 39.9279 57.5837C39.7815 57.5837 39.6374 57.6198 39.5082 57.6888C37.2729 58.8847 34.7697 59.4911 32.2349 59.4507C29.7001 59.4102 27.2175 58.7243 25.0215 57.4577C24.2947 57.039 20.0642 54.5051 18.3064 49.2043C17.817 47.7007 17.571 46.1286 17.5776 44.5474C17.7822 46.3852 18.6541 48.084 20.028 49.3217C21.4019 50.5594 23.1822 51.2499 25.0314 51.2622C26.107 51.2529 27.1689 51.0202 28.1499 50.5789C28.6596 50.3444 29.1407 50.0522 29.5838 49.708C32.7774 47.2945 33.2514 45.1023 35.3864 44.6481C36.3368 44.4597 37.3233 44.6254 38.16 45.1139C38.9967 45.6025 39.6259 46.3802 39.9289 47.3005C40.2405 46.4075 40.8464 45.647 41.6472 45.1438C42.4989 44.6399 43.5034 44.459 44.4774 44.6343C46.6124 45.0885 47.0864 47.2807 50.28 49.6941C50.723 50.0384 51.2041 50.3306 51.7138 50.5651C52.6948 51.0064 53.7567 51.2391 54.8324 51.2484C56.6818 51.2369 58.4626 50.5467 59.8366 49.3089C61.2107 48.071 62.0823 46.3717 62.2861 44.5335C62.2883 46.1155 62.0376 47.6877 61.5435 49.1905C59.7897 54.4913 55.5592 57.0252 54.8284 57.4439C52.6327 58.7103 50.1504 59.3962 47.616 59.4366C45.0815 59.477 42.5786 58.8707 40.3437 57.675L40.3476 57.6888ZM61.6343 66.1377H55.2629C55.0985 66.1388 54.9378 66.0886 54.8033 65.9941C54.6688 65.8996 54.5671 65.7654 54.5124 65.6104L53.4163 62.5176C53.3483 62.3196 53.3618 62.1027 53.4536 61.9146C53.5454 61.7265 53.7082 61.5825 53.9061 61.5143C55.7683 60.8824 57.5139 59.9482 59.0727 58.7494C59.1731 58.6735 59.2899 58.6223 59.4137 58.6C59.5375 58.5776 59.6648 58.5847 59.7854 58.6207C59.9059 58.6566 60.0163 58.7204 60.1076 58.8069C60.199 58.8935 60.2686 59.0002 60.3111 59.1187L62.3868 65.0989C62.4263 65.2178 62.4369 65.3444 62.4178 65.4683C62.3987 65.5921 62.3503 65.7096 62.2768 65.8111C62.2033 65.9126 62.1067 65.9952 61.995 66.052C61.8833 66.1087 61.7596 66.1381 61.6343 66.1377Z" fill="#262629"/>
</svg>
