<svg width="332" height="80" viewBox="0 0 332 80" fill="none" xmlns="http://www.w3.org/2000/svg">
<path d="M296.655 49.1945C296.652 49.102 296.681 49.0114 296.738 48.938C296.768 48.9031 296.806 48.8753 296.848 48.8562C296.89 48.8372 296.935 48.8275 296.982 48.8277H304.921C305.037 48.8275 305.15 48.8671 305.24 48.9401C305.33 49.013 305.393 49.1149 305.417 49.2285C306.232 53.1703 309.166 55.4888 314.585 55.4888C319.883 55.4888 323.061 53.2845 323.061 49.8377V49.7956C323.061 47.0322 321.512 45.4451 316.909 44.3489L309.904 42.7638C301.755 40.8941 297.722 36.9905 297.722 30.7723V30.7322C297.722 23.0892 304.405 17.8448 314.265 17.8448C324.412 17.8448 330.524 23.496 330.972 30.7723C330.977 30.834 330.97 30.8961 330.95 30.9548C330.93 31.0135 330.898 31.0674 330.856 31.1131C330.815 31.1588 330.764 31.1954 330.707 31.2206C330.651 31.2457 330.59 31.2589 330.528 31.2592H323.255C323.117 31.2581 322.983 31.2093 322.877 31.1209C322.77 31.0326 322.697 30.9101 322.671 30.7743C322.473 29.592 321.993 28.4753 321.27 27.5199C318.868 24.3877 314.773 24.6342 314.265 24.6342C309.538 24.6342 306.564 26.8686 306.564 30.2833V30.3254C306.564 32.9666 308.315 34.7561 312.92 35.8522L319.889 37.4373C320.591 37.4794 327.538 38.0025 330.62 43.4592C331.596 45.1628 332.071 47.1079 331.991 49.0702C331.809 52.7575 328.917 55.9557 328.34 56.577C323.609 61.661 316.779 62.1539 314.237 62.1639C310.344 62.1563 306.525 61.1 303.18 59.1059C300.966 57.8306 299.147 55.9679 297.922 53.7234C297.22 52.4168 296.659 50.8517 296.655 49.1945Z" fill="white"/>
<path d="M274.629 26.7042H267.959C267.382 26.7042 266.829 26.4749 266.422 26.0668C266.014 25.6586 265.785 25.1051 265.785 24.5279V20.1192C265.786 19.5194 266.024 18.9442 266.448 18.52C266.871 18.0959 267.446 17.8573 268.045 17.8568H274.629V2.00164C274.629 1.5095 274.824 1.0375 275.172 0.689503C275.519 0.341502 275.991 0.145996 276.482 0.145996H281.686C282.163 0.145996 282.622 0.336012 282.959 0.674242C283.297 1.01247 283.487 1.47121 283.487 1.94954V17.8588H290.027C290.33 17.8588 290.629 17.9185 290.908 18.0344C291.188 18.1504 291.442 18.3203 291.655 18.5345C291.869 18.7487 292.039 19.003 292.154 19.2828C292.27 19.5626 292.329 19.8625 292.329 20.1653V24.4417C292.329 25.0439 292.09 25.6214 291.665 26.0472C291.239 26.473 290.663 26.7122 290.061 26.7122H283.487V44.4511C283.487 46.7896 284.415 49.0323 286.066 50.6859C287.717 52.3394 289.957 53.2684 292.293 53.2684H292.309C292.313 53.2684 292.317 53.27 292.321 53.2729C292.324 53.2759 292.326 53.28 292.327 53.2844V62.1018C292.327 62.104 292.326 62.1063 292.325 62.1084C292.324 62.1105 292.323 62.1123 292.321 62.1139C292.32 62.1154 292.318 62.1165 292.315 62.1172C292.313 62.1179 292.311 62.1181 292.309 62.1178H292.293C289.951 62.1178 287.633 61.6542 285.471 60.7537C283.309 59.8531 281.346 58.5334 279.696 56.8704C278.045 55.2074 276.739 53.234 275.853 51.0637C274.967 48.8934 274.518 46.5692 274.533 44.2246C274.565 38.3825 274.597 32.5423 274.629 26.7042Z" fill="white"/>
<path d="M222.799 7.69072C226.536 3.37429 231.801 0.679367 237.485 0.17395L222.799 7.69072Z" fill="white"/>
<path d="M260.691 16.1755C260.729 16.3136 260.716 16.461 260.654 16.5901C260.592 16.7192 260.484 16.8212 260.352 16.8769C259.256 17.3358 257.324 17.8488 254.172 17.8488H224.349C221.547 17.8488 219.698 17.448 218.545 17.0271C218.407 16.977 218.292 16.8766 218.224 16.746C218.156 16.6153 218.14 16.4639 218.179 16.3218C218.437 15.3747 218.76 14.4461 219.143 13.5423C219.213 13.5487 219.281 13.5685 219.343 13.6004C220.206 14.0311 221.143 14.2936 222.103 14.3739C222.191 14.3805 222.279 14.369 222.362 14.34C222.446 14.311 222.522 14.2652 222.587 14.2055C222.651 14.1457 222.703 14.0733 222.739 13.9926C222.774 13.912 222.793 13.8249 222.794 13.7367V7.91324C222.793 7.76547 222.848 7.62279 222.946 7.51245C226.667 3.30047 231.857 0.674077 237.451 0.172027H237.507C238.076 0.172027 238.654 0.172027 239.246 0.141968C239.975 0.172027 240.681 0.174031 241.37 0.170023H241.43C246.819 0.650823 251.841 3.10538 255.535 7.06357C255.639 7.17495 255.697 7.3218 255.697 7.47438V13.7327C255.698 13.8208 255.717 13.908 255.752 13.9886C255.788 14.0692 255.84 14.1417 255.904 14.2015C255.969 14.2612 256.045 14.307 256.129 14.336C256.212 14.365 256.3 14.3765 256.388 14.3699C257.35 14.2898 258.288 14.0273 259.152 13.5964C259.219 13.5634 259.292 13.5445 259.367 13.5411C259.442 13.5376 259.517 13.5496 259.587 13.5763C259.657 13.603 259.72 13.6438 259.774 13.6962C259.828 13.7486 259.87 13.8115 259.898 13.881C260.204 14.6308 260.468 15.3968 260.691 16.1755Z" fill="white"/>
<path d="M260.452 44.411H260.464C260.658 44.2906 260.823 44.1289 260.947 43.9373C261.071 43.7458 261.152 43.5291 261.183 43.3028C261.571 40.7321 261.51 38.1134 261.003 35.5636C260.067 30.9327 257.672 26.7249 254.168 23.56C253.298 22.7686 252.164 22.33 250.988 22.3296H227.765C226.587 22.3305 225.451 22.7698 224.579 23.562C221.734 26.1446 219.611 29.4248 218.417 33.0793C217.224 36.7338 217.002 40.6366 217.774 44.403C218.09 45.9414 218.571 47.4411 219.209 48.8758C220.905 52.7052 223.654 55.9729 227.134 58.2976C230.615 60.6224 234.684 61.9083 238.866 62.0056C243.049 62.1029 247.173 61.0074 250.758 58.8469C254.342 56.6865 257.239 53.5501 259.111 49.8036C259.16 49.7053 259.182 49.5963 259.177 49.4869C259.171 49.3775 259.138 49.2713 259.08 49.1784C259.022 49.0855 258.942 49.0089 258.846 48.9559C258.75 48.903 258.642 48.8754 258.533 48.8758H250.62C249.895 48.8747 249.198 49.1532 248.673 49.6533C246.94 51.3146 244.795 52.4824 242.461 53.0358C240.126 53.5893 237.687 53.5084 235.394 52.8015C233.072 52.0424 230.985 50.6956 229.336 48.8918C227.767 47.1744 226.334 44.7496 226.716 44.405C226.755 44.3802 226.799 44.3649 226.845 44.3604C226.891 44.3559 226.937 44.3622 226.98 44.3789C233.657 44.6334 258.523 45.5452 260.452 44.411ZM227.601 35.5556C227.492 35.557 227.386 35.5313 227.29 35.4806C227.194 35.43 227.113 35.3561 227.053 35.2658C226.993 35.1754 226.957 35.0715 226.948 34.9635C226.939 34.8555 226.957 34.747 227 34.6478C228.036 32.2229 229.761 30.156 231.959 28.7034C234.158 27.2509 236.734 26.4766 239.368 26.4766C242.002 26.4766 244.579 27.2509 246.777 28.7034C248.976 30.156 250.7 32.2229 251.737 34.6478C251.78 34.7461 251.798 34.8535 251.789 34.9605C251.78 35.0675 251.745 35.1707 251.687 35.2607C251.629 35.3507 251.549 35.4248 251.455 35.4763C251.361 35.5278 251.255 35.555 251.148 35.5556H227.601Z" fill="white"/>
<path d="M205.579 0.145996H211.007C211.238 0.145996 211.467 0.191557 211.68 0.280079C211.894 0.368601 212.088 0.498349 212.251 0.661916C212.414 0.825483 212.544 1.01967 212.632 1.23338C212.721 1.44709 212.766 1.67614 212.766 1.90746V60.2621C212.766 60.7293 212.581 61.1773 212.251 61.5077C211.921 61.838 211.474 62.0236 211.007 62.0236H205.579C205.113 62.0231 204.666 61.8373 204.337 61.507C204.007 61.1767 203.822 60.729 203.822 60.2621V1.90145C203.824 1.43567 204.01 0.989478 204.339 0.660496C204.668 0.331514 205.114 0.146523 205.579 0.145996Z" fill="white"/>
<path d="M42.2899 0.173584H36.8644C36.6331 0.17411 36.4042 0.220245 36.1907 0.309353C35.9772 0.398462 35.7834 0.528799 35.6202 0.692924C35.457 0.85705 35.3277 1.05175 35.2397 1.2659C35.1517 1.48006 35.1067 1.70948 35.1072 1.94106V22.2169C31.8215 19.7967 27.9296 18.3368 23.8645 17.9996C19.7995 17.6624 15.7207 18.4612 12.082 20.307C8.44337 22.1528 5.3875 24.9733 3.25445 28.4546C1.12139 31.9359 -0.00520282 35.9416 1.80639e-05 40.0259V40.078C0.0109358 45.8998 2.3171 51.4817 6.41689 55.6098C10.5167 59.7378 16.0785 62.078 21.8925 62.1213H22.0566C26.752 62.1285 31.326 60.6283 35.1072 57.8409V60.5202C35.1061 60.9881 35.2906 61.4372 35.6201 61.769C35.9496 62.1008 36.3971 62.2881 36.8644 62.2897H42.2899C42.7577 62.2886 43.206 62.1016 43.5362 61.7699C43.8664 61.4381 44.0516 60.9886 44.0511 60.5202V1.94106C44.0514 1.70921 44.006 1.47959 43.9177 1.26529C43.8293 1.05099 43.6996 0.856221 43.5361 0.692096C43.3726 0.527971 43.1783 0.397705 42.9645 0.308739C42.7507 0.219773 42.5215 0.173847 42.2899 0.173584ZM35.1072 39.9518C35.094 43.4421 33.6998 46.785 31.2301 49.2482C28.7603 51.7114 25.4163 53.0941 21.9305 53.0936C21.8765 53.0936 21.8224 53.0936 21.7684 53.0936C18.3123 53.0505 15.0116 51.649 12.578 49.1913C10.1445 46.7336 8.77319 43.4166 8.7598 39.9558V39.9037C8.75769 38.1705 9.0971 36.454 9.75856 34.8524C10.42 33.2508 11.3906 31.7956 12.6146 30.5702C13.8386 29.3447 15.292 28.3731 16.8917 27.711C18.4913 27.0489 20.2056 26.7094 21.9365 26.7117C22.5525 26.7125 23.1677 26.7561 23.7777 26.842C24.5875 26.9542 25.3849 27.1427 26.1593 27.4051C28.7695 28.2893 31.0372 29.9707 32.6434 32.2127C34.2495 34.4547 35.1133 37.1445 35.1132 39.9037L35.1072 39.9518Z" fill="white"/>
<path d="M128.685 17.8528H128.519C125.612 17.8512 122.734 18.4234 120.048 19.5368C117.362 20.6501 114.922 22.2827 112.866 24.3412C110.811 26.3996 109.181 28.8436 108.07 31.5333C106.959 34.223 106.388 37.1056 106.391 40.0163V40.0684C106.363 42.9961 106.915 45.9002 108.014 48.613C109.114 51.3259 110.74 53.7936 112.797 55.8737C114.855 57.9537 117.304 59.6049 120.003 60.7317C122.701 61.8585 125.596 62.4387 128.52 62.4387C131.444 62.4387 134.339 61.8585 137.038 60.7317C139.737 59.6049 142.186 57.9537 144.243 55.8737C146.301 53.7936 147.927 51.3259 149.026 48.613C150.126 45.9002 150.678 42.9961 150.65 40.0684V40.0163C150.618 27.8264 140.811 17.9329 128.685 17.8528ZM141.726 39.9302C141.726 43.44 140.334 46.8062 137.855 49.288C135.376 51.7699 132.015 53.1642 128.509 53.1642C125.004 53.1642 121.642 51.7699 119.164 49.288C116.685 46.8062 115.293 43.44 115.293 39.9302V39.8801C115.303 37.1167 116.173 34.4253 117.782 32.1799C119.39 29.9346 121.658 28.2469 124.268 27.3515C125.633 26.8874 127.064 26.6511 128.505 26.6521H128.667C132.141 26.702 135.456 28.1163 137.898 30.5903C140.339 33.0642 141.713 36.3997 141.722 39.8781L141.726 39.9302Z" fill="white"/>
<path d="M138.821 37.2569C138.777 37.0845 138.731 36.9142 138.677 36.7479C138.42 35.9126 138.061 35.1124 137.608 34.3652C137.518 34.2169 137.426 34.0726 137.33 33.9283C137.282 33.8582 137.234 33.788 137.182 33.7179C136.834 33.2267 136.445 32.7655 136.019 32.3392C134.363 30.6801 132.208 29.6126 129.885 29.3012C129.724 29.2819 129.56 29.2971 129.405 29.346C129.25 29.3949 129.108 29.4763 128.986 29.5847C128.865 29.6931 128.769 29.8261 128.703 29.9749C128.637 30.1237 128.603 30.2848 128.605 30.4475V32.3612C128.607 32.6332 128.706 32.8955 128.883 33.1016C129.061 33.3077 129.305 33.4444 129.573 33.4875C130.912 33.7232 132.143 34.3712 133.096 35.341C134.049 36.3109 134.677 37.5543 134.891 38.8981C134.929 39.1666 135.062 39.4125 135.266 39.5911C135.47 39.7698 135.731 39.8695 136.001 39.872H137.931C138.094 39.8719 138.256 39.8369 138.405 39.7694C138.554 39.7018 138.687 39.6032 138.795 39.4802C138.904 39.3572 138.984 39.2125 139.032 39.0558C139.08 38.8991 139.094 38.734 139.073 38.5715C139.017 38.1284 138.933 37.6894 138.821 37.2569Z" fill="white"/>
<path d="M106.448 56.7313V78.1313C106.448 78.5794 106.626 79.0091 106.942 79.3259C107.259 79.6427 107.688 79.8206 108.135 79.8206H113.703C114.151 79.8206 114.581 79.6425 114.897 79.3253C115.214 79.0081 115.392 78.5779 115.392 78.1293V63.5166C115.392 63.4154 115.365 63.3161 115.315 63.2285C115.264 63.1409 115.191 63.0682 115.104 63.0176C112.16 61.3126 109.57 59.0598 107.471 56.3806C107.397 56.2881 107.296 56.2208 107.183 56.1878C107.069 56.1547 106.948 56.1576 106.836 56.1959C106.725 56.2343 106.627 56.3063 106.558 56.4021C106.488 56.4979 106.45 56.6129 106.448 56.7313Z" fill="white"/>
<path d="M177.682 17.949H177.517C171.655 17.9458 166.03 20.2729 161.879 24.4192C157.729 28.5654 155.391 34.1918 155.381 40.0624V40.1145C155.381 41.6072 155.529 43.0962 155.825 44.5593C156.919 49.9455 159.973 54.7325 164.394 57.9911C168.815 61.2496 174.287 62.7474 179.748 62.1935C185.209 61.6397 190.271 59.0738 193.949 54.9938C197.627 50.9139 199.661 45.6111 199.654 40.1145V40.0624C199.641 34.2212 197.325 28.6213 193.21 24.4804C189.096 20.3395 183.515 17.9923 177.682 17.949ZM190.63 39.9522C190.633 41.6951 190.292 43.4214 189.628 45.0323C188.964 46.6433 187.989 48.1073 186.759 49.3407C185.529 50.5742 184.069 51.5527 182.461 52.2205C180.853 52.8882 179.13 53.2321 177.389 53.2323C176.77 53.2327 176.151 53.1891 175.538 53.1021C174.721 52.9902 173.917 52.8003 173.137 52.535C170.511 51.6438 168.23 49.9503 166.617 47.693C165.003 45.4357 164.137 42.7283 164.141 39.9522V39.9021C164.149 36.3913 165.547 33.0269 168.029 30.5474C170.512 28.0678 173.875 26.6756 177.381 26.6761H177.543C181.021 26.7213 184.341 28.1334 186.787 30.6077C189.234 33.082 190.611 36.4202 190.622 39.9021L190.63 39.9522Z" fill="white"/>
<path d="M188.01 37.3232C187.966 37.1529 187.92 36.9806 187.866 36.8142C187.607 35.9821 187.248 35.1846 186.797 34.4396C186.707 34.2913 186.613 34.147 186.517 34.0027C186.471 33.9326 186.421 33.8624 186.371 33.7923C185.521 32.5954 184.435 31.5855 183.18 30.8248C181.926 30.0642 180.529 29.5689 179.076 29.3696C178.914 29.3496 178.751 29.3644 178.595 29.4129C178.44 29.4614 178.297 29.5425 178.176 29.6508C178.054 29.7591 177.957 29.8921 177.891 30.041C177.825 30.1898 177.792 30.351 177.793 30.5138V32.4356C177.795 32.7077 177.894 32.9702 178.071 33.1764C178.249 33.3826 178.493 33.5192 178.762 33.5618C180.1 33.7978 181.332 34.4457 182.285 35.4155C183.239 36.3853 183.867 37.6287 184.081 38.9725C184.119 39.2415 184.251 39.4881 184.455 39.6672C184.659 39.8464 184.921 39.9462 185.192 39.9484H187.123C187.287 39.948 187.449 39.9127 187.598 39.8449C187.747 39.7772 187.88 39.6784 187.989 39.5553C188.097 39.4322 188.178 39.2874 188.226 39.1306C188.274 38.9738 188.288 38.8086 188.268 38.6458C188.21 38.2 188.123 37.7582 188.01 37.3232Z" fill="white"/>
<path d="M155.444 56.8292V78.2272C155.444 78.4491 155.488 78.6689 155.572 78.874C155.657 79.0791 155.781 79.2654 155.938 79.4223C156.095 79.5793 156.281 79.7037 156.486 79.7885C156.69 79.8733 156.91 79.9168 157.131 79.9165H162.707C163.155 79.9165 163.585 79.7384 163.902 79.4212C164.218 79.104 164.396 78.6738 164.396 78.2252V63.6225C164.396 63.5216 164.37 63.4224 164.319 63.3351C164.268 63.2478 164.196 63.1755 164.108 63.1255C161.167 61.4188 158.579 59.1655 156.483 56.4865C156.411 56.3893 156.31 56.3174 156.194 56.2809C156.079 56.2444 155.955 56.2451 155.84 56.283C155.725 56.3209 155.625 56.3941 155.554 56.4921C155.483 56.5901 155.445 56.708 155.444 56.8292Z" fill="white"/>
<path d="M52.4945 53.4948C54.3434 54.9219 56.4145 56.0343 58.6245 56.7873C58.7411 56.8269 58.8487 56.8893 58.941 56.9709C59.0333 57.0525 59.1086 57.1516 59.1624 57.2625C59.2162 57.3734 59.2475 57.4939 59.2544 57.617C59.2614 57.7401 59.2439 57.8633 59.2029 57.9796L57.904 61.6528C57.8385 61.8371 57.7174 61.9964 57.5575 62.1088C57.3976 62.2212 57.2068 62.281 57.0114 62.2801H49.4545C49.3048 62.2814 49.1571 62.2467 49.0236 62.1791C48.89 62.1115 48.7747 62.0128 48.6871 61.8913C48.5995 61.7698 48.5422 61.6291 48.5201 61.481C48.4979 61.3328 48.5116 61.1814 48.5599 61.0396L51.0335 53.9337C51.0844 53.7945 51.167 53.6691 51.2748 53.5674C51.3826 53.4658 51.5125 53.3907 51.6543 53.3481C51.7961 53.3055 51.9458 53.2966 52.0917 53.322C52.2375 53.3475 52.3754 53.4067 52.4945 53.4948Z" fill="white"/>
<path d="M94.0626 38.6979C93.6283 39.9223 93.184 39.9303 93.184 39.9303H93.172C91.8835 39.9225 90.6104 39.6497 89.4316 39.1288C88.8216 38.8508 88.2455 38.5039 87.7144 38.0947C85.1627 36.185 84.06 34.3914 82.8512 33.2492C82.7395 33.1446 82.6544 33.0147 82.6031 32.8705C82.4329 32.3755 82.2588 31.8805 82.0847 31.3835C80.0634 25.3343 78.0414 19.2891 76.0187 13.2479C75.9571 13.0573 75.8367 12.8912 75.6749 12.7733C75.5131 12.6555 75.3182 12.592 75.1181 12.592C74.918 12.592 74.7231 12.6555 74.5613 12.7733C74.3995 12.8912 74.2791 13.0573 74.2175 13.2479C72.1922 19.2904 70.1682 25.3323 68.1455 31.3735C67.9721 31.8705 67.7993 32.3661 67.6272 32.8604C67.5758 33.0047 67.4907 33.1346 67.379 33.2392C66.1782 34.3814 65.0675 36.175 62.5178 38.0847C61.9856 38.4934 61.4089 38.8402 60.7987 39.1187C59.6205 39.6397 58.348 39.9125 57.0602 39.9203H57.0462C57.0462 39.9203 56.6039 39.9203 56.1676 38.6879C55.7513 37.5196 64.5511 12.6908 68.5177 1.597C68.6678 1.17779 68.9434 0.815192 69.307 0.55874C69.6706 0.302288 70.1044 0.164494 70.5491 0.164185H79.7232C80.1698 0.163867 80.6057 0.301999 80.9708 0.55962C81.336 0.817241 81.6125 1.18172 81.7625 1.60301C85.7171 12.6988 94.4849 37.5296 94.0626 38.6979Z" fill="white"/>
<path d="M97.7489 53.4949C95.8994 54.9211 93.8285 56.0334 91.6189 56.7874C91.5019 56.8265 91.394 56.8887 91.3014 56.9702C91.2088 57.0516 91.1333 57.1508 91.0794 57.2618C91.0256 57.3729 90.9944 57.4936 90.9877 57.6168C90.981 57.7401 90.9989 57.8635 91.0405 57.9797L92.3373 61.6529C92.4034 61.8369 92.5246 61.9959 92.6844 62.1082C92.8442 62.2204 93.0347 62.2805 93.2299 62.2802H100.789C100.939 62.2816 101.086 62.247 101.22 62.1794C101.353 62.1117 101.469 62.013 101.556 61.8914C101.644 61.7699 101.701 61.6291 101.722 61.4809C101.744 61.3327 101.73 61.1814 101.682 61.0397L99.2179 53.9338C99.1677 53.793 99.0851 53.666 98.9768 53.5632C98.8684 53.4603 98.7375 53.3845 98.5944 53.3417C98.4514 53.299 98.3003 53.2906 98.1534 53.3172C98.0065 53.3438 97.8679 53.4047 97.7489 53.4949Z" fill="white"/>
<path d="M101.286 38.0186C101.295 37.9933 101.312 37.9719 101.335 37.9582C101.358 37.9446 101.385 37.9396 101.412 37.9442C101.438 37.9488 101.462 37.9627 101.479 37.9833C101.496 38.0039 101.505 38.0299 101.505 38.0567C101.396 39.4536 101.119 40.8323 100.68 42.1627C98.6007 48.4591 93.5814 51.469 92.7188 51.966C90.1202 53.4669 87.1831 54.2818 84.1837 54.334C81.1842 54.3862 78.2206 53.6741 75.5714 52.2646C75.4059 52.1767 75.2214 52.1307 75.0341 52.1307C74.8467 52.1307 74.6622 52.1767 74.4967 52.2646C71.8476 53.6741 68.884 54.3862 65.8845 54.334C62.885 54.2818 59.948 53.4669 57.3494 51.966C56.4868 51.469 51.4675 48.4591 49.3881 42.1627C48.9499 40.8306 48.6725 39.4508 48.5616 38.0526C48.5606 38.0257 48.5694 37.9993 48.5862 37.9783C48.6031 37.9573 48.6269 37.9431 48.6534 37.9382C48.6798 37.9333 48.7072 37.9382 48.7304 37.9518C48.7536 37.9655 48.7711 37.987 48.7797 38.0126C49.0869 39.1392 49.6118 40.1945 50.3248 41.1187C51.1605 42.1885 52.2257 43.0566 53.4416 43.6587C54.6575 44.2609 55.993 44.5817 57.3494 44.5975C58.6258 44.5857 59.8859 44.3087 61.0498 43.7839C61.6549 43.5054 62.2257 43.1577 62.751 42.7479C66.5395 39.8822 67.1019 37.2771 69.6355 36.7361C71.3647 36.3653 72.8176 37.217 72.9977 37.3252C73.8679 37.8684 74.5445 38.6728 74.931 39.6237C74.9404 39.6423 74.9547 39.6579 74.9723 39.6688C74.99 39.6797 75.0103 39.6854 75.0311 39.6854C75.0518 39.6854 75.0722 39.6797 75.0898 39.6688C75.1075 39.6579 75.1218 39.6423 75.1312 39.6237C75.5179 38.6723 76.1953 37.8677 77.0664 37.3252C77.2446 37.217 78.6975 36.3653 80.4267 36.7361C82.9603 37.2751 83.5227 39.8802 87.3112 42.7479C87.8365 43.1577 88.4073 43.5054 89.0123 43.7839C90.1764 44.308 91.4365 44.5843 92.7128 44.5955C94.0703 44.5807 95.4071 44.2606 96.6244 43.6588C97.8417 43.057 98.9083 42.1889 99.7454 41.1187C100.456 40.196 100.98 39.1428 101.286 38.0186Z" fill="white"/>
<path d="M44.0508 38.3369V41.6915C44.0929 41.1605 44.111 40.6194 44.113 40.0783V40.0262C44.113 39.4591 44.0929 38.894 44.0508 38.3369Z" fill="white"/>
<path d="M187.752 66.4876C188.82 67.3894 189.353 68.6285 189.353 70.2049C189.353 71.7813 188.82 73.0164 187.752 73.9102C186.685 74.8066 185.209 75.2542 183.323 75.2528H179.359V79.918H177.798V65.137H183.321C185.208 65.137 186.685 65.5872 187.752 66.4876ZM186.636 72.9183C187.408 72.2797 187.794 71.3752 187.794 70.2049C187.794 69.0026 187.408 68.0841 186.636 67.4495C185.863 66.8149 184.745 66.4943 183.281 66.4876H179.359V73.8801H183.281C184.745 73.8801 185.863 73.5595 186.636 72.9183Z" fill="white"/>
<path d="M212.384 79.9168L209.01 75.1654C208.618 75.2095 208.224 75.2309 207.829 75.2296H203.865V79.9168H202.304V65.1357H207.829C209.712 65.1357 211.188 65.586 212.258 66.4864C213.328 67.3868 213.862 68.6259 213.859 70.2037C213.909 71.2464 213.601 72.2748 212.988 73.1188C212.374 73.9627 211.491 74.5717 210.485 74.8448L214.088 79.9128L212.384 79.9168ZM211.14 72.927C211.913 72.2791 212.3 71.3713 212.3 70.2037C212.3 69.0013 211.913 68.0829 211.14 67.4483C210.366 66.8137 209.248 66.4931 207.787 66.4864H203.865V73.901H207.787C209.248 73.8996 210.366 73.575 211.14 72.927Z" fill="white"/>
<path d="M229.54 78.9529C228.402 78.3382 227.455 77.4225 226.802 76.3057C226.156 75.1513 225.817 73.8503 225.817 72.5273C225.817 71.2042 226.156 69.9032 226.802 68.7488C227.454 67.6311 228.401 66.7151 229.54 66.1016C230.743 65.4673 232.082 65.1349 233.441 65.1332C234.801 65.1314 236.14 65.4603 237.345 66.0916C238.479 66.7076 239.422 67.6232 240.073 68.7388C240.725 69.8947 241.067 71.1997 241.067 72.5273C241.067 73.8548 240.725 75.1598 240.073 76.3157C239.422 77.4309 238.479 78.3463 237.345 78.9629C236.14 79.5933 234.801 79.9218 233.441 79.92C232.082 79.9183 230.743 79.5864 229.54 78.9529ZM236.558 77.7686C237.469 77.2638 238.223 76.5169 238.736 75.6103C239.252 74.6649 239.522 73.6047 239.522 72.5273C239.522 71.4498 239.252 70.3896 238.736 69.4442C238.222 68.5367 237.468 67.7891 236.556 67.2839C235.597 66.7734 234.528 66.5064 233.441 66.5064C232.355 66.5064 231.286 66.7734 230.326 67.2839C229.408 67.7872 228.646 68.5347 228.125 69.4442C227.603 70.3876 227.328 71.4486 227.328 72.5273C227.328 73.6059 227.603 74.6669 228.125 75.6103C228.646 76.5191 229.408 77.2661 230.326 77.7686C231.285 78.2805 232.355 78.5482 233.441 78.5482C234.528 78.5482 235.598 78.2805 236.556 77.7686H236.558Z" fill="white"/>
<path d="M253.368 79.3736C252.665 79.0171 252.067 78.4832 251.633 77.8245L252.553 76.7764C253.362 77.9788 254.415 78.58 255.712 78.58C257.523 78.58 258.429 77.5052 258.429 75.3557V66.4782H253.076V65.1376H259.972V75.2915C259.972 76.8279 259.613 77.9835 258.894 78.7583C258.175 79.5332 257.112 79.92 255.706 79.9186C254.894 79.9279 254.092 79.7409 253.368 79.3736Z" fill="white"/>
<path d="M284.657 78.5661V79.9168H274.218V65.1357H284.341V66.4864H275.783V71.7447H283.416V73.0753H275.783V78.5661H284.657Z" fill="white"/>
<path d="M300.321 78.963C299.186 78.3492 298.244 77.433 297.597 76.3158C296.951 75.1578 296.612 73.8536 296.612 72.5273C296.612 71.2011 296.951 69.8969 297.597 68.7389C298.243 67.6203 299.188 66.7037 300.325 66.0917C301.521 65.4456 302.862 65.1165 304.221 65.1358C305.242 65.1256 306.255 65.3084 307.207 65.6749C308.092 66.0169 308.887 66.557 309.531 67.254L308.556 68.2299C307.421 67.081 305.99 66.5065 304.263 66.5065C303.169 66.4927 302.09 66.7648 301.133 67.2961C300.217 67.8014 299.456 68.5476 298.932 69.4543C298.409 70.3937 298.135 71.4511 298.135 72.5263C298.135 73.6016 298.409 74.659 298.932 75.5984C299.456 76.5056 300.217 77.2525 301.133 77.7586C302.09 78.2898 303.169 78.562 304.263 78.5482C305.998 78.5482 307.429 77.9664 308.556 76.8027L309.531 77.7787C308.884 78.4789 308.085 79.0223 307.197 79.3678C306.241 79.7416 305.222 79.928 304.195 79.9169C302.844 79.9358 301.51 79.6073 300.321 78.963Z" fill="white"/>
<path d="M325.231 66.4864H320.044V65.1357H331.98V66.4864H326.792V79.9128H325.231V66.4864Z" fill="white"/>
</svg>
