<svg width="320" height="80" viewBox="0 0 320 80" fill="none" xmlns="http://www.w3.org/2000/svg">
<path fill-rule="evenodd" clip-rule="evenodd" d="M80 21.2432V80H0V0H58.7568L80 21.2432ZM21.4011 42.4864H30.3798C29.3938 43.1905 28.5242 43.853 27.7339 44.4552L27.7338 44.4553C25.1341 46.4361 23.3919 47.7635 21.1854 47.7635C18.1539 47.5132 19.0283 44.9324 19.7756 43.4725C19.9312 43.1758 20.1647 42.9272 20.4512 42.7534C20.7376 42.5797 21.066 42.4874 21.4011 42.4864ZM12.5686 66.8728H22.2446C22.2809 66.8794 22.3183 66.8714 22.3486 66.8504C22.379 66.8295 22.3997 66.7973 22.4064 66.7611C22.413 66.7248 22.405 66.6874 22.384 66.6571C22.3631 66.6267 22.3309 66.6059 22.2947 66.5993C19.5138 65.7774 16.8077 64.7208 14.2057 63.4407C14.1299 63.4035 14.047 63.3829 13.9625 63.3805C13.8781 63.3781 13.7941 63.3939 13.7163 63.4268C13.6385 63.4596 13.5687 63.5089 13.5116 63.5711C13.4544 63.6333 13.4114 63.7071 13.3852 63.7874L12.4338 66.6879C12.4272 66.7091 12.4257 66.7316 12.4293 66.7535C12.4329 66.7755 12.4416 66.7963 12.4547 66.8142C12.4678 66.8322 12.485 66.8469 12.5047 66.857C12.5245 66.8672 12.5464 66.8726 12.5686 66.8728ZM58.6027 42.4864H49.6278C50.6313 43.2017 51.5135 43.8747 52.3142 44.4855C54.8941 46.4537 56.6261 47.7751 58.8338 47.7751C61.8614 47.5247 60.9908 44.9439 60.2397 43.4841C60.0851 43.1832 59.8505 42.9309 59.5616 42.7548C59.2728 42.5788 58.9409 42.4859 58.6027 42.4864ZM67.4583 66.8728H57.7785C57.7422 66.8794 57.7048 66.8714 57.6745 66.8504C57.6441 66.8295 57.6234 66.7973 57.6167 66.7611C57.6101 66.7248 57.6181 66.6874 57.6391 66.6571C57.66 66.6267 57.6922 66.6059 57.7284 66.5993C60.5093 65.7774 63.2154 64.7208 65.8174 63.4407C65.8932 63.4035 65.9761 63.3829 66.0606 63.3805C66.145 63.3781 66.229 63.3939 66.3068 63.4268C66.3846 63.4596 66.4544 63.5089 66.5115 63.5711C66.5687 63.6333 66.6117 63.7071 66.6379 63.7874L67.5893 66.6879C67.5967 66.7088 67.5989 66.7312 67.5959 66.7532C67.5928 66.7752 67.5845 66.7962 67.5717 66.8143C67.5647 66.8241 67.5565 66.833 67.5472 66.8407C67.5395 66.8471 67.5311 66.8527 67.5221 66.8573C67.5186 66.8592 67.515 66.8608 67.5113 66.8624C67.5074 66.864 67.5034 66.8654 67.4994 66.8666C67.4861 66.8707 67.4723 66.8728 67.4583 66.8728ZM69.9966 42.8909C60.9833 55.489 55.8382 51.4792 50.9477 47.6679C48.6758 45.8974 46.4589 44.1697 43.9347 44.1697C40.8185 44.1697 40.0019 46.685 40.0019 47.7905C40.0019 46.685 39.1814 44.1697 36.0691 44.1697C33.5384 44.1697 31.3186 45.8995 29.045 47.6711C24.1551 51.4815 19.0167 55.4855 10.0033 42.8909C9.74909 63.1249 28.9893 67.9282 40.0019 55.2554C51.0106 67.9089 70.2508 63.1249 69.9966 42.8909ZM63.9297 37.4867C65.328 36.8858 66.965 36.1 68.448 35.3065C68.5784 35.2352 68.6804 35.1214 68.7372 34.984C68.7939 34.8467 68.802 34.6941 68.76 34.5515C68.5867 33.966 68.2515 32.9145 67.7739 31.7589C67.74 31.676 67.6893 31.601 67.6249 31.5387C67.5605 31.4764 67.4838 31.4282 67.3998 31.397C67.3158 31.3659 67.2263 31.3525 67.1368 31.3578C67.0474 31.3631 66.96 31.3868 66.8803 31.4276C65.4397 32.1595 64.2918 32.6756 63.221 33.1263V24.3671C63.2215 24.2132 63.1668 24.0643 63.0669 23.9473C60.2521 20.5614 56.7264 17.8368 52.7401 15.9669C48.7539 14.0969 44.4048 13.1276 40.0018 13.1276C35.5987 13.1276 31.2496 14.0969 27.2634 15.9669C23.2771 17.8368 19.7514 20.5614 16.9366 23.9473C16.8367 24.0643 16.782 24.2132 16.7825 24.3671V33.1109C15.7079 32.6602 14.56 32.1441 13.1232 31.4122C13.0432 31.3714 12.9555 31.3476 12.8658 31.3422C12.7761 31.3369 12.6863 31.3503 12.602 31.3814C12.5177 31.4125 12.4407 31.4607 12.376 31.5231C12.3112 31.5854 12.2601 31.6604 12.2257 31.7435C11.752 32.9068 11.4168 33.9506 11.2397 34.5361C11.1932 34.6812 11.1995 34.8379 11.2572 34.9788C11.315 35.1198 11.4206 35.2358 11.5555 35.3065C13.0346 36.1 14.6717 36.8858 16.0699 37.4867C16.5302 37.6829 17.0256 37.7838 17.526 37.7833H62.4776C62.9767 37.7838 63.4708 37.6829 63.9297 37.4867Z" fill="#D9304F"/>
<path d="M279.754 21.8732H275.101C274.694 21.8612 274.307 21.6929 274.024 21.4042C273.741 21.1155 273.583 20.7293 273.585 20.3278V17.2976C273.585 17.0936 273.626 16.8917 273.705 16.7033C273.784 16.5149 273.901 16.3438 274.047 16.1997C274.194 16.0556 274.368 15.9414 274.559 15.8637C274.75 15.7859 274.955 15.746 275.162 15.7464H279.754V1.77441C279.754 1.60646 279.787 1.4401 279.853 1.28493C279.918 1.12977 280.014 0.988873 280.135 0.870385C280.255 0.751896 280.399 0.658161 280.557 0.594594C280.714 0.531027 280.883 0.498887 281.054 0.500029H284.68C285.012 0.500029 285.329 0.629737 285.564 0.860619C285.798 1.0915 285.93 1.40464 285.93 1.73116V15.7464H290.493C290.921 15.7448 291.334 15.9098 291.64 16.2055C291.946 16.5013 292.122 16.904 292.129 17.3264V20.3134C292.129 20.7271 291.962 21.1238 291.665 21.4164C291.368 21.7089 290.965 21.8732 290.545 21.8732H285.921V34.0692C285.918 34.8724 286.076 35.6683 286.385 36.4114C286.694 37.1545 287.149 37.8303 287.724 38.4001C288.298 38.9699 288.981 39.4226 289.734 39.7322C290.486 40.0418 291.293 40.2024 292.108 40.2046V46.2594C290.339 46.2849 288.586 45.9317 286.969 45.2243C286.465 45.0023 282.675 43.2753 280.799 39.1263C280.082 37.5368 279.719 35.8144 279.734 34.075C279.769 30.0615 279.728 25.878 279.754 21.8732Z" fill="#D9304F"/>
<path d="M195.808 27.9683C195.096 24.5223 193.196 21.4248 190.431 19.2006C187.666 16.9763 184.205 15.7621 180.636 15.7637C179.591 15.7632 178.548 15.8665 177.525 16.0722C174.555 16.6752 171.83 18.1223 169.687 20.2345C167.543 22.3467 166.075 25.0314 165.464 27.9567C165.255 28.9731 165.152 30.0078 165.156 31.0447V60.5283C165.156 60.786 165.26 61.0331 165.445 61.2154C165.63 61.3976 165.881 61.4999 166.143 61.4999H170.366C170.624 61.4992 170.871 61.3977 171.053 61.2177C171.235 61.0377 171.338 60.794 171.338 60.5398V43.2406C173.166 44.5995 175.28 45.5383 177.525 45.9883C178.23 46.1346 178.945 46.2309 179.664 46.2766H181.604C182.314 46.2365 183.019 46.1459 183.715 46.0056C187.218 45.307 190.368 43.4351 192.63 40.7079C194.892 37.9806 196.125 34.5662 196.121 31.0447C196.122 30.0114 196.017 28.9807 195.808 27.9683ZM189.41 34.0634C188.947 35.3589 188.196 36.5356 187.21 37.5067C186.224 38.4778 185.03 39.2184 183.715 39.6741C182.965 39.9354 182.184 40.0983 181.391 40.1585C181.139 40.1815 180.887 40.1902 180.636 40.1902C180.384 40.1902 180.129 40.1902 179.881 40.1585C177.95 40.0014 176.117 39.2533 174.64 38.0191C173.162 36.7849 172.113 35.1262 171.64 33.2755C171.167 31.4247 171.293 29.4745 172.001 27.6979C172.709 25.9213 173.963 24.4074 175.588 23.3681C177.213 22.3288 179.127 21.8161 181.062 21.9019C182.998 21.9878 184.858 22.6677 186.381 23.8467C187.905 25.0256 189.016 26.6444 189.559 28.4764C190.102 30.3085 190.05 32.262 189.41 34.0634Z" fill="#D9304F"/>
<path d="M229.866 27.9684C229.098 24.2625 226.96 20.9699 223.866 18.7295C220.773 16.4892 216.945 15.4609 213.125 15.8442C209.305 16.2275 205.766 17.995 203.195 20.8038C200.623 23.6126 199.203 27.2624 199.209 31.0447V60.5284C199.209 60.7861 199.313 61.0332 199.498 61.2155C199.683 61.3977 199.934 61.5 200.195 61.5H204.421C204.549 61.5 204.676 61.4752 204.794 61.427C204.913 61.3787 205.02 61.308 205.111 61.2188C205.201 61.1297 205.273 61.0238 205.322 60.9074C205.371 60.7909 205.396 60.666 205.396 60.5399V43.2407C207.225 44.5996 209.339 45.5384 211.583 45.9884C212.288 46.1347 213.003 46.231 213.723 46.2767H215.663C216.372 46.2364 217.077 46.1458 217.773 46.0057C221.278 45.3101 224.43 43.4389 226.691 40.7109C228.953 37.983 230.185 34.5669 230.176 31.0447C230.177 30.0117 230.073 28.9811 229.866 27.9684ZM223.468 34.0635C223.005 35.3587 222.253 36.5351 221.268 37.5061C220.282 38.4771 219.088 39.218 217.773 39.6742C217.023 39.9358 216.24 40.0986 215.446 40.1586C215.198 40.1816 214.946 40.1903 214.691 40.1903C214.437 40.1903 214.188 40.1903 213.936 40.1586C212.006 40.0009 210.173 39.2524 208.696 38.0179C207.219 36.7833 206.17 35.1245 205.698 33.2738C205.225 31.423 205.352 29.473 206.06 27.6967C206.768 25.9204 208.023 24.4067 209.647 23.3677C211.272 22.3287 213.187 21.8163 215.122 21.9023C217.057 21.9883 218.917 22.6684 220.44 23.8473C221.963 25.0262 223.074 26.645 223.617 28.4769C224.16 30.3088 224.108 32.2622 223.468 34.0635Z" fill="#D9304F"/>
<path d="M273.065 27.9596C272.83 26.8928 272.508 25.8837 272.069 24.9034C271.601 23.8078 270.987 22.7987 270.255 21.8761C270.255 21.8761 270.255 21.8761 270.226 21.8472C269.348 20.694 268.323 19.6848 267.153 18.8199C267.123 18.8199 267.123 18.791 267.094 18.791C265.367 17.4648 263.26 16.5133 260.977 16.052C259.982 15.879 258.958 15.7637 257.904 15.7637C256.851 15.7637 255.797 15.879 254.802 16.0808C252.548 16.5421 250.441 17.4936 248.656 18.791C248.626 18.791 248.626 18.8199 248.597 18.8199C247.427 19.6848 246.402 20.694 245.524 21.8472C245.524 21.8472 245.524 21.8472 245.495 21.8761C244.793 22.7987 244.178 23.8366 243.68 24.9034C243.3 25.8549 242.949 26.8928 242.744 27.9596C242.539 28.9399 242.422 29.949 242.422 31.0158V31.0447C242.422 32.0826 242.539 33.0917 242.715 34.072C242.919 35.1388 243.271 36.1479 243.68 37.1282C244.149 38.2238 244.763 39.233 245.466 40.1556C245.466 40.1556 245.466 40.1556 245.466 40.1844C246.344 41.3377 247.397 42.3757 248.568 43.2406C250.353 44.5669 252.46 45.5183 254.743 45.9797C255.446 46.1238 256.148 46.2103 256.88 46.268H258.811C259.543 46.2391 260.246 46.1238 260.919 46.0085C263.202 45.5472 265.338 44.5957 267.123 43.2694C268.294 42.4045 269.348 41.3665 270.226 40.2132C270.226 40.2132 270.226 40.2132 270.226 40.1844C270.635 39.6366 271.045 39.0311 271.367 38.4257C271.689 37.849 271.25 37.157 270.606 37.157H265.572C265.133 37.157 264.723 37.33 264.401 37.6184C263.436 38.541 262.265 39.2618 260.977 39.7231C260.246 39.9826 259.455 40.1556 258.665 40.2132C258.577 40.2132 258.49 40.2132 258.402 40.2421C258.226 40.2421 258.08 40.2421 257.904 40.2421C257.729 40.2421 257.582 40.2421 257.407 40.2421C257.319 40.2421 257.231 40.2421 257.143 40.2132C256.324 40.1556 255.534 39.9826 254.802 39.7231C253.309 39.2041 251.992 38.3103 250.968 37.1859C250.178 36.2921 249.534 35.283 249.124 34.1297H271.572C272.479 34.1297 273.24 33.4377 273.328 32.5439C273.386 32.0538 273.386 31.5925 273.386 31.1023V31.0735C273.386 29.949 273.269 28.9399 273.065 27.9596ZM249.153 27.9596C249.329 27.4983 249.563 26.9217 249.944 26.3162C250.148 25.9702 250.5 25.4512 251.026 24.8746C252.051 23.7501 253.368 22.8852 254.831 22.3662C255.797 22.0202 256.851 21.8472 257.933 21.8472C259.016 21.8472 260.041 22.0202 261.006 22.3662C262.499 22.8852 263.816 23.7501 264.84 24.8746C265.484 25.5666 266.011 26.3739 266.421 27.2388C266.567 27.556 266.333 27.9308 265.982 27.9308C260.333 27.9596 254.743 27.9596 249.153 27.9596Z" fill="#D9304F"/>
<path d="M121.78 1.49471V18.8314C119.923 17.4587 117.776 16.5148 115.499 16.0697C113.222 15.6245 110.873 15.6894 108.624 16.2597C106.376 16.8299 104.287 17.8908 102.511 19.3639C100.735 20.837 99.3183 22.6846 98.3652 24.77C97.4121 26.8555 96.9471 29.1253 97.0048 31.4116C97.0624 33.698 97.6411 35.9423 98.6981 37.9785C99.7551 40.0148 101.263 41.7908 103.111 43.1753C104.959 44.5598 107.099 45.5172 109.373 45.9768C110.071 46.12 110.778 46.2164 111.489 46.2651H113.477C116.485 46.079 119.372 45.0274 121.78 43.2406V45.38C121.78 45.615 121.876 45.8401 122.045 46.006C122.214 46.1719 122.443 46.2651 122.681 46.2651H126.972C127.236 46.2651 127.489 46.1619 127.676 45.9782C127.863 45.7944 127.969 45.5451 127.97 45.2848V1.5639C127.97 1.42419 127.942 1.28584 127.887 1.15676C127.833 1.02769 127.754 0.910402 127.653 0.81161C127.553 0.712817 127.434 0.634451 127.303 0.580985C127.172 0.527519 127.032 0.5 126.89 0.5H122.792C122.524 0.499999 122.267 0.604706 122.077 0.791167C121.888 0.977628 121.78 1.23063 121.78 1.49471ZM121.259 34.0749C120.796 35.3704 120.044 36.5471 119.059 37.5182C118.073 38.4893 116.878 39.23 115.563 39.6856C114.814 39.9469 114.032 40.1098 113.24 40.17C112.988 40.1931 112.736 40.2017 112.484 40.2017C112.233 40.2017 111.978 40.2017 111.729 40.17C109.799 40.0143 107.966 39.2678 106.487 38.0348C105.009 36.8019 103.958 35.1443 103.484 33.2942C103.009 31.444 103.133 29.4939 103.84 27.7169C104.546 25.9399 105.798 24.4249 107.422 23.3841C109.046 22.3433 110.959 21.8287 112.894 21.9125C114.83 21.9963 116.69 22.6741 118.215 23.8512C119.74 25.0283 120.853 26.6457 121.398 28.4768C121.943 30.308 121.893 32.2614 121.256 34.0634L121.259 34.0749Z" fill="#D9304F"/>
<path d="M238.353 0.5H234.39C233.776 0.5 233.278 0.990525 233.278 1.59562V45.158C233.278 45.763 233.776 46.2536 234.39 46.2536H238.353C238.967 46.2536 239.465 45.763 239.465 45.158V1.59562C239.465 0.990525 238.967 0.5 238.353 0.5Z" fill="#D9304F"/>
<path d="M161.738 27.9684C161.273 25.7283 160.303 23.6198 158.899 21.7988C157.496 19.9778 155.695 18.4908 153.629 17.4479C151.564 16.4049 149.287 15.8326 146.966 15.7732C144.646 15.7138 142.342 16.169 140.224 17.1049C138.107 18.0408 136.23 19.4337 134.732 21.1804C133.234 22.9272 132.154 24.9833 131.572 27.1966C130.989 29.4099 130.919 31.7239 131.367 33.9675C131.814 36.2111 132.768 38.3269 134.157 40.1586C135.042 41.3218 136.089 42.3556 137.268 43.2292C139.098 44.5882 141.213 45.527 143.458 45.9769C144.163 46.1232 144.878 46.2195 145.597 46.2652H147.535C148.243 46.2252 148.947 46.1347 149.642 45.9942C151.899 45.5473 154.024 44.6063 155.861 43.2408V45.1581C155.861 45.3037 155.891 45.4479 155.947 45.5824C156.004 45.717 156.087 45.8391 156.192 45.942C156.296 46.0448 156.421 46.1263 156.557 46.1818C156.694 46.2373 156.84 46.2656 156.988 46.2652H160.966C161.254 46.2652 161.53 46.1525 161.733 45.9519C161.937 45.7513 162.051 45.4793 162.051 45.1956V31.0448C162.053 30.0116 161.948 28.9808 161.738 27.9684ZM155.34 34.0635C154.877 35.359 154.125 36.5357 153.14 37.5071C152.154 38.4786 150.96 39.2201 149.645 39.6771C148.896 39.9367 148.116 40.0986 147.324 40.1586C147.073 40.1817 146.821 40.1903 146.569 40.1903C146.317 40.1903 146.063 40.1903 145.814 40.1586C145.015 40.0954 144.228 39.9296 143.473 39.6656C141.407 38.9432 139.666 37.5249 138.559 35.6612C137.451 33.7974 137.048 31.6081 137.419 29.4797C137.791 27.3514 138.914 25.4209 140.591 24.0291C142.267 22.6373 144.389 21.8738 146.581 21.8733C148.066 21.8738 149.53 22.2246 150.85 22.8964C152.169 23.5682 153.306 24.5416 154.166 25.735C155.026 26.9285 155.583 28.3073 155.791 29.7563C155.998 31.2052 155.851 32.6821 155.361 34.0635H155.34Z" fill="#D9304F"/>
<path d="M295.222 37.3242C295.22 37.2602 295.239 37.1973 295.277 37.1454C295.299 37.1215 295.326 37.1025 295.356 37.0895C295.385 37.0766 295.418 37.0701 295.45 37.0705H301.011C301.094 37.0711 301.174 37.1003 301.238 37.1529C301.301 37.2055 301.344 37.2783 301.359 37.3588C301.944 40.0748 303.993 41.6692 307.798 41.6692C311.515 41.6692 313.742 40.1584 313.742 37.7797V37.7509C313.742 35.848 312.656 34.7581 309.428 34.0027L304.514 32.9129C298.798 31.6241 295.968 28.9398 295.968 24.6554V24.6294C295.968 19.3676 300.651 15.7578 307.57 15.7578C314.684 15.7578 318.984 19.6473 319.276 24.6554C319.281 24.698 319.276 24.741 319.262 24.7816C319.248 24.8223 319.226 24.8596 319.197 24.8913C319.168 24.9231 319.132 24.9485 319.092 24.9659C319.053 24.9834 319.01 24.9925 318.966 24.9927H313.868C313.771 24.993 313.676 24.9597 313.602 24.8986C313.527 24.8375 313.476 24.7524 313.458 24.6583C313.325 23.8354 312.987 23.0579 312.475 22.3949C310.789 20.2383 307.921 20.4084 307.564 20.4084C304.251 20.4084 302.164 21.9481 302.164 24.2979V24.3267C302.164 26.146 303.393 27.3771 306.621 28.1325L311.509 29.2224C312.001 29.2512 316.871 29.6116 319.034 33.3684C319.717 34.5392 320.05 35.8767 319.993 37.2262C319.868 39.7663 317.839 41.969 317.436 42.3957C314.117 45.8959 309.329 46.2362 307.546 46.2419C304.816 46.2384 302.137 45.5114 299.79 44.1372C298.24 43.2597 296.965 41.9777 296.106 40.4323C295.56 39.482 295.257 38.4154 295.222 37.3242Z" fill="#D9304F"/>
<path d="M105.848 73.508H99.608L98.264 76.5H97.032L102.152 65.3H103.32L108.44 76.5H107.192L105.848 73.508ZM105.416 72.548L102.728 66.532L100.04 72.548H105.416ZM119.8 68.084V76.5H118.712V74.964C118.414 75.476 118.003 75.876 117.481 76.164C116.958 76.4413 116.36 76.58 115.688 76.58C114.59 76.58 113.72 76.276 113.08 75.668C112.451 75.0493 112.136 74.148 112.136 72.964V68.084H113.272V72.852C113.272 73.7373 113.491 74.4093 113.928 74.868C114.366 75.3267 114.99 75.556 115.8 75.556C116.686 75.556 117.385 75.2893 117.897 74.756C118.409 74.212 118.665 73.46 118.665 72.5V68.084H119.8ZM133.094 68.084V75.476C133.094 76.9053 132.742 77.9613 132.038 78.644C131.345 79.3373 130.294 79.684 128.886 79.684C128.107 79.684 127.366 79.5667 126.662 79.332C125.969 79.108 125.403 78.7933 124.966 78.388L125.542 77.524C125.947 77.8867 126.438 78.1693 127.014 78.372C127.601 78.5747 128.214 78.676 128.854 78.676C129.921 78.676 130.705 78.4253 131.206 77.924C131.707 77.4333 131.958 76.6653 131.958 75.62V74.548C131.606 75.0813 131.142 75.4867 130.566 75.764C130.001 76.0413 129.371 76.18 128.678 76.18C127.889 76.18 127.169 76.0093 126.518 75.668C125.878 75.316 125.371 74.8307 124.998 74.212C124.635 73.5827 124.454 72.8733 124.454 72.084C124.454 71.2947 124.635 70.5907 124.998 69.972C125.371 69.3533 125.878 68.8733 126.518 68.532C127.158 68.1907 127.878 68.02 128.678 68.02C129.393 68.02 130.038 68.164 130.614 68.452C131.19 68.74 131.654 69.156 132.006 69.7V68.084H133.094ZM128.79 75.172C129.398 75.172 129.947 75.044 130.438 74.788C130.929 74.5213 131.307 74.1533 131.574 73.684C131.851 73.2147 131.99 72.6813 131.99 72.084C131.99 71.4867 131.851 70.9587 131.574 70.5C131.307 70.0307 130.929 69.668 130.438 69.412C129.958 69.1453 129.409 69.012 128.79 69.012C128.182 69.012 127.633 69.14 127.142 69.396C126.662 69.652 126.283 70.0147 126.006 70.484C125.739 70.9533 125.606 71.4867 125.606 72.084C125.606 72.6813 125.739 73.2147 126.006 73.684C126.283 74.1533 126.662 74.5213 127.142 74.788C127.633 75.044 128.182 75.172 128.79 75.172ZM149.087 68.02C150.143 68.02 150.97 68.324 151.567 68.932C152.175 69.54 152.479 70.436 152.479 71.62V76.5H151.343V71.732C151.343 70.8573 151.13 70.1907 150.703 69.732C150.287 69.2733 149.695 69.044 148.927 69.044C148.052 69.044 147.364 69.316 146.863 69.86C146.362 70.3933 146.111 71.1347 146.111 72.084V76.5H144.975V71.732C144.975 70.8573 144.762 70.1907 144.335 69.732C143.919 69.2733 143.322 69.044 142.543 69.044C141.679 69.044 140.991 69.316 140.479 69.86C139.978 70.3933 139.727 71.1347 139.727 72.084V76.5H138.591V68.084H139.679V69.62C139.978 69.108 140.394 68.7133 140.927 68.436C141.46 68.1587 142.074 68.02 142.767 68.02C143.471 68.02 144.079 68.1693 144.591 68.468C145.114 68.7667 145.503 69.2093 145.759 69.796C146.068 69.2413 146.511 68.8093 147.087 68.5C147.674 68.18 148.34 68.02 149.087 68.02ZM165.239 72.644H158.199C158.263 73.5187 158.599 74.228 159.207 74.772C159.815 75.3053 160.583 75.572 161.511 75.572C162.034 75.572 162.514 75.4813 162.951 75.3C163.388 75.108 163.767 74.8307 164.087 74.468L164.727 75.204C164.354 75.652 163.884 75.9933 163.319 76.228C162.764 76.4627 162.151 76.58 161.479 76.58C160.615 76.58 159.847 76.3987 159.175 76.036C158.514 75.6627 157.996 75.1507 157.623 74.5C157.25 73.8493 157.063 73.1133 157.063 72.292C157.063 71.4707 157.239 70.7347 157.591 70.084C157.954 69.4333 158.444 68.9267 159.063 68.564C159.692 68.2013 160.396 68.02 161.175 68.02C161.954 68.02 162.652 68.2013 163.271 68.564C163.89 68.9267 164.375 69.4333 164.727 70.084C165.079 70.724 165.255 71.46 165.255 72.292L165.239 72.644ZM161.175 68.996C160.364 68.996 159.682 69.2573 159.127 69.78C158.583 70.292 158.274 70.964 158.199 71.796H164.167C164.092 70.964 163.778 70.292 163.223 69.78C162.679 69.2573 161.996 68.996 161.175 68.996ZM174.175 68.02C175.231 68.02 176.068 68.3293 176.687 68.948C177.316 69.556 177.631 70.4467 177.631 71.62V76.5H176.495V71.732C176.495 70.8573 176.276 70.1907 175.839 69.732C175.402 69.2733 174.778 69.044 173.967 69.044C173.06 69.044 172.34 69.316 171.807 69.86C171.284 70.3933 171.023 71.1347 171.023 72.084V76.5H169.887V68.084H170.975V69.636C171.284 69.124 171.711 68.7293 172.255 68.452C172.81 68.164 173.45 68.02 174.175 68.02ZM187.467 75.988C187.254 76.18 186.987 76.3293 186.667 76.436C186.358 76.532 186.033 76.58 185.691 76.58C184.902 76.58 184.294 76.3667 183.867 75.94C183.441 75.5133 183.227 74.9107 183.227 74.132V69.044H181.723V68.084H183.227V66.244H184.363V68.084H186.923V69.044H184.363V74.068C184.363 74.5693 184.486 74.9533 184.731 75.22C184.987 75.476 185.35 75.604 185.819 75.604C186.054 75.604 186.278 75.5667 186.491 75.492C186.715 75.4173 186.907 75.3107 187.067 75.172L187.467 75.988ZM194.799 68.02C195.898 68.02 196.741 68.2973 197.327 68.852C197.914 69.396 198.207 70.2067 198.207 71.284V76.5H197.119V75.188C196.863 75.6253 196.485 75.9667 195.983 76.212C195.493 76.4573 194.906 76.58 194.223 76.58C193.285 76.58 192.538 76.356 191.983 75.908C191.429 75.46 191.151 74.868 191.151 74.132C191.151 73.4173 191.407 72.8413 191.919 72.404C192.442 71.9667 193.269 71.748 194.399 71.748H197.071V71.236C197.071 70.5107 196.869 69.9613 196.463 69.588C196.058 69.204 195.466 69.012 194.687 69.012C194.154 69.012 193.642 69.1027 193.151 69.284C192.661 69.4547 192.239 69.6947 191.887 70.004L191.375 69.156C191.802 68.7933 192.314 68.516 192.911 68.324C193.509 68.1213 194.138 68.02 194.799 68.02ZM194.399 75.684C195.039 75.684 195.589 75.54 196.047 75.252C196.506 74.9533 196.847 74.5267 197.071 73.972V72.596H194.431C192.991 72.596 192.271 73.0973 192.271 74.1C192.271 74.5907 192.458 74.98 192.831 75.268C193.205 75.5453 193.727 75.684 194.399 75.684ZM208.045 75.988C207.831 76.18 207.565 76.3293 207.245 76.436C206.935 76.532 206.61 76.58 206.269 76.58C205.479 76.58 204.871 76.3667 204.445 75.94C204.018 75.5133 203.805 74.9107 203.805 74.132V69.044H202.301V68.084H203.805V66.244H204.941V68.084H207.501V69.044H204.941V74.068C204.941 74.5693 205.063 74.9533 205.309 75.22C205.565 75.476 205.927 75.604 206.397 75.604C206.631 75.604 206.855 75.5667 207.069 75.492C207.293 75.4173 207.485 75.3107 207.645 75.172L208.045 75.988ZM212.433 68.084H213.569V76.5H212.433V68.084ZM213.009 66.244C212.774 66.244 212.577 66.164 212.417 66.004C212.257 65.844 212.177 65.652 212.177 65.428C212.177 65.2147 212.257 65.028 212.417 64.868C212.577 64.708 212.774 64.628 213.009 64.628C213.243 64.628 213.441 64.708 213.601 64.868C213.761 65.0173 213.841 65.1987 213.841 65.412C213.841 65.6467 213.761 65.844 213.601 66.004C213.441 66.164 213.243 66.244 213.009 66.244ZM222.49 76.58C221.679 76.58 220.948 76.3987 220.298 76.036C219.647 75.6627 219.135 75.1507 218.762 74.5C218.388 73.8493 218.202 73.1133 218.202 72.292C218.202 71.4707 218.388 70.7347 218.762 70.084C219.135 69.4333 219.647 68.9267 220.298 68.564C220.948 68.2013 221.679 68.02 222.49 68.02C223.3 68.02 224.031 68.2013 224.682 68.564C225.332 68.9267 225.839 69.4333 226.202 70.084C226.575 70.7347 226.762 71.4707 226.762 72.292C226.762 73.1133 226.575 73.8493 226.202 74.5C225.839 75.1507 225.332 75.6627 224.682 76.036C224.031 76.3987 223.3 76.58 222.49 76.58ZM222.49 75.572C223.087 75.572 223.62 75.4387 224.09 75.172C224.57 74.8947 224.943 74.5053 225.21 74.004C225.476 73.5027 225.61 72.932 225.61 72.292C225.61 71.652 225.476 71.0813 225.21 70.58C224.943 70.0787 224.57 69.6947 224.09 69.428C223.62 69.1507 223.087 69.012 222.49 69.012C221.892 69.012 221.354 69.1507 220.874 69.428C220.404 69.6947 220.031 70.0787 219.754 70.58C219.487 71.0813 219.354 71.652 219.354 72.292C219.354 72.932 219.487 73.5027 219.754 74.004C220.031 74.5053 220.404 74.8947 220.874 75.172C221.354 75.4387 221.892 75.572 222.49 75.572ZM235.689 68.02C236.745 68.02 237.582 68.3293 238.201 68.948C238.83 69.556 239.145 70.4467 239.145 71.62V76.5H238.009V71.732C238.009 70.8573 237.79 70.1907 237.353 69.732C236.916 69.2733 236.292 69.044 235.481 69.044C234.574 69.044 233.854 69.316 233.321 69.86C232.798 70.3933 232.537 71.1347 232.537 72.084V76.5H231.401V68.084H232.489V69.636C232.798 69.124 233.225 68.7293 233.769 68.452C234.324 68.164 234.964 68.02 235.689 68.02ZM254.385 76.596C253.553 76.596 252.753 76.4627 251.985 76.196C251.227 75.9293 250.641 75.5773 250.225 75.14L250.689 74.228C251.094 74.6333 251.633 74.964 252.305 75.22C252.977 75.4653 253.67 75.588 254.385 75.588C255.387 75.588 256.139 75.4067 256.641 75.044C257.142 74.6707 257.393 74.1907 257.393 73.604C257.393 73.156 257.254 72.7987 256.977 72.532C256.71 72.2653 256.379 72.0627 255.985 71.924C255.59 71.7747 255.041 71.6147 254.337 71.444C253.494 71.2307 252.822 71.028 252.321 70.836C251.819 70.6333 251.387 70.3293 251.025 69.924C250.673 69.5187 250.497 68.9693 250.497 68.276C250.497 67.7107 250.646 67.1987 250.945 66.74C251.243 66.2707 251.702 65.8973 252.321 65.62C252.939 65.3427 253.707 65.204 254.625 65.204C255.265 65.204 255.889 65.2947 256.497 65.476C257.115 65.6467 257.649 65.8867 258.097 66.196L257.697 67.14C257.227 66.8307 256.726 66.6013 256.193 66.452C255.659 66.292 255.137 66.212 254.625 66.212C253.643 66.212 252.902 66.404 252.401 66.788C251.91 67.1613 251.665 67.6467 251.665 68.244C251.665 68.692 251.798 69.0547 252.065 69.332C252.342 69.5987 252.683 69.8067 253.089 69.956C253.505 70.0947 254.059 70.2493 254.753 70.42C255.574 70.6227 256.235 70.8253 256.737 71.028C257.249 71.22 257.681 71.5187 258.033 71.924C258.385 72.3187 258.561 72.8573 258.561 73.54C258.561 74.1053 258.406 74.6227 258.097 75.092C257.798 75.5507 257.334 75.9187 256.705 76.196C256.075 76.4627 255.302 76.596 254.385 76.596ZM270.136 68.084L265.928 77.508C265.587 78.2973 265.192 78.8573 264.744 79.188C264.296 79.5187 263.757 79.684 263.128 79.684C262.723 79.684 262.344 79.62 261.992 79.492C261.64 79.364 261.336 79.172 261.08 78.916L261.608 78.068C262.035 78.4947 262.547 78.708 263.144 78.708C263.528 78.708 263.853 78.6013 264.12 78.388C264.397 78.1747 264.653 77.812 264.888 77.3L265.256 76.484L261.496 68.084H262.68L265.848 75.236L269.016 68.084H270.136ZM276.218 76.58C275.535 76.58 274.879 76.484 274.25 76.292C273.631 76.0893 273.146 75.8387 272.794 75.54L273.306 74.644C273.658 74.9213 274.101 75.1507 274.634 75.332C275.167 75.5027 275.722 75.588 276.298 75.588C277.066 75.588 277.631 75.4707 277.994 75.236C278.367 74.9907 278.554 74.6493 278.554 74.212C278.554 73.9027 278.453 73.6627 278.25 73.492C278.047 73.3107 277.791 73.1773 277.482 73.092C277.173 72.996 276.762 72.9053 276.25 72.82C275.567 72.692 275.018 72.564 274.602 72.436C274.186 72.2973 273.829 72.068 273.53 71.748C273.242 71.428 273.098 70.9853 273.098 70.42C273.098 69.716 273.391 69.14 273.978 68.692C274.565 68.244 275.381 68.02 276.426 68.02C276.97 68.02 277.514 68.0947 278.058 68.244C278.602 68.3827 279.05 68.5693 279.402 68.804L278.906 69.716C278.213 69.236 277.386 68.996 276.426 68.996C275.701 68.996 275.151 69.124 274.778 69.38C274.415 69.636 274.234 69.972 274.234 70.388C274.234 70.708 274.335 70.964 274.538 71.156C274.751 71.348 275.013 71.492 275.322 71.588C275.631 71.6733 276.058 71.764 276.602 71.86C277.274 71.988 277.813 72.116 278.218 72.244C278.623 72.372 278.97 72.5907 279.258 72.9C279.546 73.2093 279.69 73.636 279.69 74.18C279.69 74.916 279.381 75.5027 278.762 75.94C278.154 76.3667 277.306 76.58 276.218 76.58ZM288.542 75.988C288.329 76.18 288.062 76.3293 287.742 76.436C287.433 76.532 287.108 76.58 286.766 76.58C285.977 76.58 285.369 76.3667 284.942 75.94C284.516 75.5133 284.302 74.9107 284.302 74.132V69.044H282.798V68.084H284.302V66.244H285.438V68.084H287.998V69.044H285.438V74.068C285.438 74.5693 285.561 74.9533 285.806 75.22C286.062 75.476 286.425 75.604 286.894 75.604C287.129 75.604 287.353 75.5667 287.566 75.492C287.79 75.4173 287.982 75.3107 288.142 75.172L288.542 75.988ZM299.961 72.644H292.921C292.985 73.5187 293.321 74.228 293.929 74.772C294.537 75.3053 295.305 75.572 296.233 75.572C296.756 75.572 297.236 75.4813 297.673 75.3C298.111 75.108 298.489 74.8307 298.809 74.468L299.449 75.204C299.076 75.652 298.607 75.9933 298.041 76.228C297.487 76.4627 296.873 76.58 296.201 76.58C295.337 76.58 294.569 76.3987 293.897 76.036C293.236 75.6627 292.719 75.1507 292.345 74.5C291.972 73.8493 291.785 73.1133 291.785 72.292C291.785 71.4707 291.961 70.7347 292.313 70.084C292.676 69.4333 293.167 68.9267 293.785 68.564C294.415 68.2013 295.119 68.02 295.897 68.02C296.676 68.02 297.375 68.2013 297.993 68.564C298.612 68.9267 299.097 69.4333 299.449 70.084C299.801 70.724 299.977 71.46 299.977 72.292L299.961 72.644ZM295.897 68.996C295.087 68.996 294.404 69.2573 293.849 69.78C293.305 70.292 292.996 70.964 292.921 71.796H298.889C298.815 70.964 298.5 70.292 297.945 69.78C297.401 69.2573 296.719 68.996 295.897 68.996ZM315.106 68.02C316.162 68.02 316.988 68.324 317.586 68.932C318.194 69.54 318.498 70.436 318.498 71.62V76.5H317.362V71.732C317.362 70.8573 317.148 70.1907 316.722 69.732C316.306 69.2733 315.714 69.044 314.946 69.044C314.071 69.044 313.383 69.316 312.882 69.86C312.38 70.3933 312.13 71.1347 312.13 72.084V76.5H310.994V71.732C310.994 70.8573 310.78 70.1907 310.354 69.732C309.938 69.2733 309.34 69.044 308.562 69.044C307.698 69.044 307.01 69.316 306.498 69.86C305.996 70.3933 305.746 71.1347 305.746 72.084V76.5H304.61V68.084H305.698V69.62C305.996 69.108 306.412 68.7133 306.946 68.436C307.479 68.1587 308.092 68.02 308.786 68.02C309.49 68.02 310.098 68.1693 310.61 68.468C311.132 68.7667 311.522 69.2093 311.778 69.796C312.087 69.2413 312.53 68.8093 313.106 68.5C313.692 68.18 314.359 68.02 315.106 68.02Z" fill="#D9304F"/>
</svg>
